<svg xmlns="http://www.w3.org/2000/svg" viewBox="0 9.050000190734863 415.54998779296875 51.53000259399414" data-asc="0.99" width="415.54998779296875" height="51.53000259399414"><defs/><g fill="#000000"><g transform="translate(0, 0)"><path d="M16.60 49.50L16.60 34.90L8.20 34.90L8.20 49.50L0 49.50L0 14.85L8.20 14.85L8.20 28.15L16.60 28.15L16.60 14.85L24.80 14.85L24.80 49.50L16.60 49.50ZM37.75 38.52Q38.02 40.70 38.89 42.04Q39.75 43.38 41.10 43.99Q42.45 44.60 44.13 44.60Q45.95 44.60 47.65 44Q49.35 43.40 50.92 42.40L54.10 46.70Q52.23 48.30 49.56 49.33Q46.90 50.35 43.50 50.35Q38.95 50.35 35.88 48.54Q32.80 46.73 31.25 43.55Q29.70 40.38 29.70 36.25Q29.70 32.33 31.20 29.11Q32.70 25.90 35.59 23.99Q38.48 22.07 42.65 22.07Q46.45 22.07 49.24 23.70Q52.02 25.32 53.56 28.38Q55.10 31.43 55.10 35.70Q55.10 36.38 55.06 37.15Q55.02 37.92 54.95 38.52L37.75 38.52M42.65 27.38Q40.52 27.38 39.23 28.90Q37.92 30.43 37.65 33.77L47.40 33.77Q47.38 30.88 46.27 29.13Q45.17 27.38 42.65 27.38ZM60.90 49.50L60.90 22.95L67.80 22.95L68.35 26.02Q70.13 24.02 72.10 23.05Q74.08 22.07 76.60 22.07Q80 22.07 81.95 24.15Q83.90 26.22 83.90 30L83.90 49.50L76 49.50L76 32.27Q76 30.65 75.78 29.69Q75.55 28.72 74.99 28.31Q74.42 27.90 73.45 27.90Q72.63 27.90 71.84 28.26Q71.05 28.63 70.30 29.30Q69.55 29.97 68.80 30.93L68.80 49.50L60.90 49.50ZM91.15 49.50L91.15 44.20L94.65 44.20L94.65 28.20L91.15 28.20L91.15 22.95L100.68 22.95L102.13 28.92Q103.55 25.50 105.76 23.82Q107.98 22.15 111.18 22.15Q112.53 22.15 113.58 22.36Q114.63 22.57 115.55 22.95L113.15 29.47Q112.43 29.27 111.70 29.17Q110.98 29.07 110.10 29.07Q107.50 29.07 105.54 31.20Q103.58 33.33 102.55 36.60L102.55 44.20L107.80 44.20L107.80 49.50L91.15 49.50M109.13 34.05L109.13 26.30L110.30 22.95L115.55 22.95L114.08 34.05L109.13 34.05ZM137.13 22.95L137.13 44.10L143.88 44.10L143.88 49.50L121.70 49.50L121.70 44.10L129.22 44.10L129.22 28.35L121.95 28.35L121.95 22.95L137.13 22.95M132.35 9.05Q134.40 9.05 135.70 10.32Q137 11.60 137 13.50Q137 15.40 135.70 16.69Q134.40 17.97 132.35 17.97Q130.28 17.97 128.96 16.69Q127.65 15.40 127.65 13.50Q127.65 11.60 128.96 10.32Q130.28 9.05 132.35 9.05ZM160.13 22.07Q162.10 22.07 163.78 22.84Q165.45 23.60 166.65 25.07L167 22.95L173.90 22.95L173.90 60.58L166 59.75L166 47.27Q164.85 48.65 163.20 49.50Q161.55 50.35 159.20 50.35Q155.80 50.35 153.65 48.59Q151.50 46.83 150.50 43.64Q149.50 40.45 149.50 36.15Q149.50 32.05 150.74 28.88Q151.97 25.70 154.35 23.89Q156.72 22.07 160.13 22.07M162.20 27.85Q160.03 27.85 158.84 29.79Q157.65 31.72 157.65 36.20Q157.65 39.48 158.15 41.27Q158.65 43.08 159.56 43.79Q160.47 44.50 161.70 44.50Q163.08 44.50 164.13 43.70Q165.18 42.90 166 41.48L166 30.02Q165.22 29 164.33 28.42Q163.43 27.85 162.20 27.85ZM188.80 22.95L188.80 41.13Q188.80 43.05 189.51 43.77Q190.22 44.50 191.50 44.50Q192.72 44.50 193.95 43.73Q195.18 42.95 196 41.63L196 22.95L203.90 22.95L203.90 49.50L197 49.50L196.65 46.40Q195.30 48.35 193.10 49.35Q190.90 50.35 188.50 50.35Q184.65 50.35 182.78 48.11Q180.90 45.88 180.90 42.10L180.90 22.95L188.80 22.95ZM217.75 38.52Q218.03 40.70 218.89 42.04Q219.75 43.38 221.10 43.99Q222.45 44.60 224.13 44.60Q225.95 44.60 227.65 44Q229.35 43.40 230.93 42.40L234.10 46.70Q232.23 48.30 229.56 49.33Q226.90 50.35 223.50 50.35Q218.95 50.35 215.88 48.54Q212.80 46.73 211.25 43.55Q209.70 40.38 209.70 36.25Q209.70 32.33 211.20 29.11Q212.70 25.90 215.59 23.99Q218.47 22.07 222.65 22.07Q226.45 22.07 229.24 23.70Q232.03 25.32 233.56 28.38Q235.10 31.43 235.10 35.70Q235.10 36.38 235.06 37.15Q235.03 37.92 234.95 38.52L217.75 38.52M222.65 27.38Q220.53 27.38 219.22 28.90Q217.93 30.43 217.65 33.77L227.40 33.77Q227.38 30.88 226.28 29.13Q225.18 27.38 222.65 27.38ZM295.80 39.38Q295.80 42.60 294.11 45.08Q292.42 47.55 289.27 48.95Q286.13 50.35 281.70 50.35Q276.80 50.35 273.49 48.91Q270.17 47.48 268 45.35L272.15 40.75Q274.07 42.42 276.40 43.34Q278.72 44.25 281.50 44.25Q283.22 44.25 284.52 43.75Q285.82 43.25 286.55 42.30Q287.27 41.35 287.27 40Q287.27 38.73 286.70 37.85Q286.13 36.98 284.76 36.27Q283.40 35.58 280.97 34.85Q276.92 33.60 274.46 32.10Q272 30.60 270.89 28.63Q269.77 26.65 269.77 24.02Q269.77 20.85 271.54 18.60Q273.30 16.35 276.27 15.16Q279.25 13.98 282.82 13.98Q286.85 13.98 289.92 15.14Q293 16.30 295.25 18.45L291.38 22.90Q289.63 21.42 287.60 20.71Q285.57 20 283.47 20Q281.92 20 280.75 20.39Q279.57 20.77 278.92 21.52Q278.27 22.27 278.27 23.40Q278.27 24.50 278.90 25.25Q279.52 26 281.07 26.66Q282.63 27.32 285.38 28.20Q288.65 29.20 290.99 30.59Q293.32 31.97 294.56 34.08Q295.80 36.17 295.80 39.38ZM323.25 41.85Q323.25 43.35 323.66 44.02Q324.07 44.70 325 45.05L323.38 50.25Q321.02 50.02 319.41 49.21Q317.80 48.40 316.88 46.75Q315.35 48.58 312.97 49.46Q310.60 50.35 308.13 50.35Q304.02 50.35 301.59 48.01Q299.15 45.67 299.15 42Q299.15 37.67 302.54 35.33Q305.92 32.97 312.07 32.97L315.65 32.97L315.65 31.97Q315.65 29.90 314.31 28.90Q312.97 27.90 310.40 27.90Q309.13 27.90 307.13 28.26Q305.13 28.63 303.13 29.30L301.30 24.05Q303.88 23.07 306.66 22.57Q309.45 22.07 311.65 22.07Q317.57 22.07 320.41 24.49Q323.25 26.90 323.25 31.45L323.25 41.85M310.85 44.70Q312.13 44.70 313.52 43.94Q314.92 43.17 315.65 41.77L315.65 37.48L313.70 37.48Q310.40 37.48 308.85 38.49Q307.30 39.50 307.30 41.45Q307.30 42.98 308.24 43.84Q309.17 44.70 310.85 44.70ZM350.52 22.07Q352.42 22.07 353.65 22.88Q354.88 23.67 355.47 25.39Q356.07 27.10 356.07 29.85L356.07 49.50L349.30 49.50L349.30 30.75Q349.30 29.35 349.04 28.77Q348.77 28.20 347.97 28.20Q347.35 28.20 346.69 28.56Q346.02 28.92 345.22 29.92L345.22 49.50L339.67 49.50L339.67 30.75Q339.67 29.35 339.41 28.77Q339.15 28.20 338.35 28.20Q337.72 28.20 337.06 28.56Q336.40 28.92 335.60 29.92L335.60 49.50L328.72 49.50L328.72 22.95L334.52 22.95L335.05 25.52Q336.30 23.82 337.57 22.95Q338.85 22.07 340.60 22.07Q342.10 22.07 343.16 22.84Q344.22 23.60 344.67 25.22Q345.88 23.82 347.32 22.95Q348.77 22.07 350.52 22.07ZM377.13 22.95L377.13 44.10L383.88 44.10L383.88 49.50L361.70 49.50L361.70 44.10L369.22 44.10L369.22 28.35L361.95 28.35L361.95 22.95L377.13 22.95M372.35 9.05Q374.40 9.05 375.70 10.32Q377 11.60 377 13.50Q377 15.40 375.70 16.69Q374.40 17.97 372.35 17.97Q370.27 17.97 368.96 16.69Q367.65 15.40 367.65 13.50Q367.65 11.60 368.96 10.32Q370.27 9.05 372.35 9.05ZM391.15 49.50L391.15 44.20L394.65 44.20L394.65 28.20L391.15 28.20L391.15 22.95L400.67 22.95L402.13 28.92Q403.55 25.50 405.76 23.82Q407.97 22.15 411.17 22.15Q412.52 22.15 413.57 22.36Q414.63 22.57 415.55 22.95L413.15 29.47Q412.42 29.27 411.70 29.17Q410.97 29.07 410.10 29.07Q407.50 29.07 405.54 31.20Q403.57 33.33 402.55 36.60L402.55 44.20L407.80 44.20L407.80 49.50L391.15 49.50M409.13 34.05L409.13 26.30L410.30 22.95L415.55 22.95L414.07 34.05L409.13 34.05Z"/></g></g></svg>